<svg xmlns="http://www.w3.org/2000/svg" viewBox="0 0 45 45" shape-rendering="crispEdges" width="540" height="540">
<rect x="0" y="0" width="45" height="45" fill="#FFFFFF"/>
<path fill="#000000" d="M4 4h7v1h-7zM12 4h2v1h-2zM16 4h1v1h-1zM19 4h2v1h-2zM22 4h4v1h-4zM27 4h1v1h-1zM29 4h1v1h-1zM32 4h1v1h-1zM34 4h7v1h-7zM4 5h1v1h-1zM10 5h1v1h-1zM12 5h5v1h-5zM18 5h1v1h-1zM21 5h1v1h-1zM24 5h1v1h-1zM26 5h1v1h-1zM29 5h4v1h-4zM34 5h1v1h-1zM40 5h1v1h-1zM4 6h1v1h-1zM6 6h3v1h-3zM10 6h1v1h-1zM12 6h1v1h-1zM14 6h1v1h-1zM17 6h1v1h-1zM19 6h1v1h-1zM24 6h2v1h-2zM27 6h2v1h-2zM30 6h1v1h-1zM32 6h1v1h-1zM34 6h1v1h-1zM36 6h3v1h-3zM40 6h1v1h-1zM4 7h1v1h-1zM6 7h3v1h-3zM10 7h1v1h-1zM13 7h3v1h-3zM18 7h1v1h-1zM20 7h2v1h-2zM27 7h5v1h-5zM34 7h1v1h-1zM36 7h3v1h-3zM40 7h1v1h-1zM4 8h1v1h-1zM6 8h3v1h-3zM10 8h1v1h-1zM13 8h1v1h-1zM19 8h2v1h-2zM23 8h2v1h-2zM26 8h2v1h-2zM29 8h1v1h-1zM34 8h1v1h-1zM36 8h3v1h-3zM40 8h1v1h-1zM4 9h1v1h-1zM10 9h1v1h-1zM12 9h2v1h-2zM15 9h2v1h-2zM18 9h3v1h-3zM25 9h2v1h-2zM30 9h3v1h-3zM34 9h1v1h-1zM40 9h1v1h-1zM4 10h7v1h-7zM12 10h1v1h-1zM14 10h1v1h-1zM16 10h1v1h-1zM18 10h1v1h-1zM20 10h1v1h-1zM22 10h1v1h-1zM24 10h1v1h-1zM26 10h1v1h-1zM28 10h1v1h-1zM30 10h1v1h-1zM32 10h1v1h-1zM34 10h7v1h-7zM12 11h3v1h-3zM16 11h1v1h-1zM18 11h1v1h-1zM20 11h1v1h-1zM24 11h3v1h-3zM30 11h1v1h-1zM32 11h1v1h-1zM6 12h3v1h-3zM10 12h1v1h-1zM12 12h4v1h-4zM17 12h1v1h-1zM20 12h5v1h-5zM26 12h2v1h-2zM29 12h2v1h-2zM33 12h3v1h-3zM38 12h3v1h-3zM6 13h2v1h-2zM11 13h1v1h-1zM13 13h1v1h-1zM15 13h1v1h-1zM17 13h2v1h-2zM24 13h2v1h-2zM27 13h4v1h-4zM32 13h2v1h-2zM37 13h1v1h-1zM6 14h1v1h-1zM9 14h2v1h-2zM15 14h1v1h-1zM17 14h2v1h-2zM25 14h2v1h-2zM28 14h4v1h-4zM34 14h5v1h-5zM40 14h1v1h-1zM4 15h1v1h-1zM7 15h2v1h-2zM12 15h1v1h-1zM14 15h1v1h-1zM16 15h4v1h-4zM22 15h2v1h-2zM26 15h1v1h-1zM28 15h1v1h-1zM30 15h1v1h-1zM32 15h1v1h-1zM34 15h2v1h-2zM37 15h1v1h-1zM40 15h1v1h-1zM5 16h2v1h-2zM10 16h6v1h-6zM19 16h4v1h-4zM27 16h1v1h-1zM29 16h2v1h-2zM33 16h2v1h-2zM36 16h5v1h-5zM5 17h1v1h-1zM7 17h3v1h-3zM11 17h1v1h-1zM16 17h1v1h-1zM18 17h5v1h-5zM24 17h1v1h-1zM26 17h5v1h-5zM33 17h1v1h-1zM35 17h1v1h-1zM37 17h2v1h-2zM6 18h7v1h-7zM16 18h1v1h-1zM21 18h3v1h-3zM25 18h1v1h-1zM27 18h5v1h-5zM33 18h2v1h-2zM36 18h2v1h-2zM39 18h2v1h-2zM4 19h1v1h-1zM6 19h2v1h-2zM12 19h2v1h-2zM16 19h1v1h-1zM18 19h1v1h-1zM22 19h1v1h-1zM24 19h1v1h-1zM30 19h2v1h-2zM34 19h1v1h-1zM40 19h1v1h-1zM4 20h1v1h-1zM6 20h1v1h-1zM8 20h1v1h-1zM10 20h1v1h-1zM13 20h1v1h-1zM16 20h3v1h-3zM20 20h1v1h-1zM23 20h1v1h-1zM25 20h1v1h-1zM29 20h6v1h-6zM36 20h1v1h-1zM38 20h3v1h-3zM4 21h1v1h-1zM8 21h1v1h-1zM12 21h1v1h-1zM18 21h1v1h-1zM21 21h3v1h-3zM25 21h6v1h-6zM32 21h1v1h-1zM35 21h1v1h-1zM4 22h2v1h-2zM8 22h1v1h-1zM10 22h1v1h-1zM12 22h2v1h-2zM15 22h1v1h-1zM18 22h2v1h-2zM21 22h1v1h-1zM24 22h1v1h-1zM26 22h1v1h-1zM29 22h3v1h-3zM33 22h2v1h-2zM36 22h5v1h-5zM4 23h2v1h-2zM8 23h1v1h-1zM11 23h1v1h-1zM16 23h1v1h-1zM18 23h1v1h-1zM23 23h2v1h-2zM28 23h1v1h-1zM30 23h1v1h-1zM33 23h1v1h-1zM35 23h2v1h-2zM40 23h1v1h-1zM8 24h4v1h-4zM13 24h1v1h-1zM15 24h1v1h-1zM17 24h2v1h-2zM20 24h1v1h-1zM22 24h1v1h-1zM26 24h1v1h-1zM29 24h3v1h-3zM34 24h6v1h-6zM4 25h1v1h-1zM6 25h1v1h-1zM8 25h1v1h-1zM11 25h1v1h-1zM16 25h1v1h-1zM18 25h1v1h-1zM21 25h1v1h-1zM23 25h1v1h-1zM25 25h1v1h-1zM27 25h4v1h-4zM35 25h1v1h-1zM38 25h2v1h-2zM6 26h1v1h-1zM10 26h2v1h-2zM13 26h2v1h-2zM18 26h1v1h-1zM22 26h2v1h-2zM25 26h4v1h-4zM31 26h1v1h-1zM37 26h4v1h-4zM4 27h1v1h-1zM8 27h2v1h-2zM11 27h8v1h-8zM20 27h1v1h-1zM24 27h1v1h-1zM26 27h2v1h-2zM33 27h3v1h-3zM39 27h2v1h-2zM4 28h2v1h-2zM8 28h3v1h-3zM12 28h1v1h-1zM15 28h3v1h-3zM19 28h1v1h-1zM21 28h1v1h-1zM28 28h2v1h-2zM34 28h5v1h-5zM40 28h1v1h-1zM4 29h1v1h-1zM6 29h1v1h-1zM8 29h1v1h-1zM12 29h2v1h-2zM16 29h1v1h-1zM20 29h2v1h-2zM23 29h3v1h-3zM28 29h1v1h-1zM30 29h1v1h-1zM32 29h2v1h-2zM38 29h1v1h-1zM4 30h1v1h-1zM7 30h1v1h-1zM9 30h4v1h-4zM14 30h1v1h-1zM16 30h2v1h-2zM20 30h6v1h-6zM31 30h2v1h-2zM34 30h2v1h-2zM39 30h2v1h-2zM4 31h1v1h-1zM6 31h4v1h-4zM11 31h1v1h-1zM13 31h1v1h-1zM15 31h7v1h-7zM25 31h3v1h-3zM33 31h1v1h-1zM35 31h1v1h-1zM37 31h1v1h-1zM40 31h1v1h-1zM4 32h1v1h-1zM6 32h1v1h-1zM8 32h1v1h-1zM10 32h4v1h-4zM16 32h3v1h-3zM21 32h1v1h-1zM24 32h1v1h-1zM26 32h11v1h-11zM38 32h2v1h-2zM12 33h2v1h-2zM15 33h1v1h-1zM17 33h1v1h-1zM20 33h2v1h-2zM24 33h2v1h-2zM27 33h1v1h-1zM32 33h1v1h-1zM36 33h1v1h-1zM39 33h1v1h-1zM4 34h7v1h-7zM13 34h3v1h-3zM17 34h1v1h-1zM21 34h2v1h-2zM26 34h1v1h-1zM29 34h1v1h-1zM32 34h1v1h-1zM34 34h1v1h-1zM36 34h2v1h-2zM39 34h2v1h-2zM4 35h1v1h-1zM10 35h1v1h-1zM13 35h3v1h-3zM17 35h2v1h-2zM22 35h2v1h-2zM25 35h1v1h-1zM27 35h2v1h-2zM32 35h1v1h-1zM36 35h1v1h-1zM39 35h2v1h-2zM4 36h1v1h-1zM6 36h3v1h-3zM10 36h1v1h-1zM12 36h1v1h-1zM19 36h2v1h-2zM25 36h2v1h-2zM28 36h9v1h-9zM38 36h3v1h-3zM4 37h1v1h-1zM6 37h3v1h-3zM10 37h1v1h-1zM12 37h4v1h-4zM19 37h3v1h-3zM23 37h1v1h-1zM26 37h3v1h-3zM32 37h1v1h-1zM34 37h5v1h-5zM4 38h1v1h-1zM6 38h3v1h-3zM10 38h1v1h-1zM12 38h2v1h-2zM15 38h2v1h-2zM18 38h1v1h-1zM21 38h1v1h-1zM24 38h1v1h-1zM28 38h2v1h-2zM32 38h2v1h-2zM35 38h1v1h-1zM40 38h1v1h-1zM4 39h1v1h-1zM10 39h1v1h-1zM13 39h1v1h-1zM15 39h1v1h-1zM18 39h3v1h-3zM30 39h1v1h-1zM32 39h5v1h-5zM40 39h1v1h-1zM4 40h7v1h-7zM13 40h2v1h-2zM17 40h2v1h-2zM20 40h3v1h-3zM26 40h1v1h-1zM28 40h3v1h-3zM33 40h8v1h-8z"/>
</svg>