<svg xmlns="http://www.w3.org/2000/svg" viewBox="0 0 49 49" shape-rendering="crispEdges" width="588" height="588">
<rect x="0" y="0" width="49" height="49" fill="#FFFFFF"/>
<path fill="#000000" d="M4 4h7v1h-7zM12 4h1v1h-1zM15 4h2v1h-2zM18 4h1v1h-1zM21 4h2v1h-2zM25 4h6v1h-6zM32 4h1v1h-1zM34 4h3v1h-3zM38 4h7v1h-7zM4 5h1v1h-1zM10 5h1v1h-1zM12 5h1v1h-1zM15 5h2v1h-2zM18 5h2v1h-2zM21 5h1v1h-1zM23 5h2v1h-2zM26 5h1v1h-1zM29 5h4v1h-4zM34 5h1v1h-1zM36 5h1v1h-1zM38 5h1v1h-1zM44 5h1v1h-1zM4 6h1v1h-1zM6 6h3v1h-3zM10 6h1v1h-1zM12 6h1v1h-1zM17 6h1v1h-1zM19 6h2v1h-2zM23 6h2v1h-2zM26 6h1v1h-1zM29 6h1v1h-1zM31 6h1v1h-1zM38 6h1v1h-1zM40 6h3v1h-3zM44 6h1v1h-1zM4 7h1v1h-1zM6 7h3v1h-3zM10 7h1v1h-1zM14 7h1v1h-1zM21 7h1v1h-1zM26 7h1v1h-1zM30 7h1v1h-1zM34 7h1v1h-1zM38 7h1v1h-1zM40 7h3v1h-3zM44 7h1v1h-1zM4 8h1v1h-1zM6 8h3v1h-3zM10 8h1v1h-1zM13 8h3v1h-3zM17 8h2v1h-2zM22 8h1v1h-1zM26 8h4v1h-4zM35 8h2v1h-2zM38 8h1v1h-1zM40 8h3v1h-3zM44 8h1v1h-1zM4 9h1v1h-1zM10 9h1v1h-1zM12 9h3v1h-3zM18 9h1v1h-1zM22 9h1v1h-1zM24 9h2v1h-2zM30 9h2v1h-2zM34 9h1v1h-1zM38 9h1v1h-1zM44 9h1v1h-1zM4 10h7v1h-7zM12 10h1v1h-1zM14 10h1v1h-1zM16 10h1v1h-1zM18 10h1v1h-1zM20 10h1v1h-1zM22 10h1v1h-1zM24 10h1v1h-1zM26 10h1v1h-1zM28 10h1v1h-1zM30 10h1v1h-1zM32 10h1v1h-1zM34 10h1v1h-1zM36 10h1v1h-1zM38 10h7v1h-7zM12 11h1v1h-1zM14 11h1v1h-1zM16 11h10v1h-10zM28 11h1v1h-1zM31 11h1v1h-1zM34 11h3v1h-3zM6 12h3v1h-3zM10 12h1v1h-1zM12 12h7v1h-7zM22 12h1v1h-1zM25 12h4v1h-4zM30 12h2v1h-2zM33 12h1v1h-1zM35 12h5v1h-5zM42 12h3v1h-3zM4 13h1v1h-1zM6 13h1v1h-1zM8 13h2v1h-2zM11 13h1v1h-1zM13 13h1v1h-1zM15 13h1v1h-1zM19 13h1v1h-1zM22 13h2v1h-2zM25 13h3v1h-3zM32 13h5v1h-5zM38 13h3v1h-3zM42 13h2v1h-2zM5 14h1v1h-1zM9 14h2v1h-2zM13 14h5v1h-5zM19 14h1v1h-1zM22 14h1v1h-1zM27 14h1v1h-1zM29 14h5v1h-5zM36 14h2v1h-2zM39 14h2v1h-2zM43 14h1v1h-1zM6 15h1v1h-1zM8 15h1v1h-1zM11 15h1v1h-1zM14 15h1v1h-1zM18 15h4v1h-4zM25 15h1v1h-1zM27 15h1v1h-1zM29 15h1v1h-1zM31 15h1v1h-1zM35 15h2v1h-2zM39 15h3v1h-3zM44 15h1v1h-1zM5 16h2v1h-2zM8 16h1v1h-1zM10 16h2v1h-2zM16 16h5v1h-5zM22 16h2v1h-2zM25 16h3v1h-3zM32 16h2v1h-2zM35 16h1v1h-1zM37 16h1v1h-1zM39 16h1v1h-1zM41 16h2v1h-2zM44 16h1v1h-1zM5 17h4v1h-4zM12 17h1v1h-1zM17 17h3v1h-3zM22 17h5v1h-5zM29 17h3v1h-3zM36 17h1v1h-1zM39 17h3v1h-3zM43 17h2v1h-2zM4 18h4v1h-4zM9 18h5v1h-5zM16 18h2v1h-2zM19 18h1v1h-1zM25 18h1v1h-1zM28 18h2v1h-2zM31 18h2v1h-2zM35 18h1v1h-1zM37 18h1v1h-1zM39 18h1v1h-1zM41 18h1v1h-1zM5 19h5v1h-5zM15 19h1v1h-1zM17 19h1v1h-1zM19 19h2v1h-2zM22 19h1v1h-1zM25 19h7v1h-7zM34 19h3v1h-3zM38 19h2v1h-2zM41 19h1v1h-1zM4 20h4v1h-4zM10 20h8v1h-8zM19 20h1v1h-1zM22 20h2v1h-2zM25 20h1v1h-1zM27 20h7v1h-7zM35 20h1v1h-1zM37 20h1v1h-1zM39 20h1v1h-1zM41 20h2v1h-2zM44 20h1v1h-1zM4 21h3v1h-3zM8 21h2v1h-2zM15 21h4v1h-4zM21 21h3v1h-3zM28 21h3v1h-3zM33 21h1v1h-1zM35 21h2v1h-2zM38 21h3v1h-3zM43 21h2v1h-2zM6 22h3v1h-3zM10 22h1v1h-1zM13 22h1v1h-1zM15 22h1v1h-1zM17 22h3v1h-3zM23 22h4v1h-4zM28 22h6v1h-6zM36 22h2v1h-2zM40 22h2v1h-2zM4 23h2v1h-2zM8 23h1v1h-1zM17 23h1v1h-1zM21 23h2v1h-2zM25 23h3v1h-3zM29 23h3v1h-3zM33 23h2v1h-2zM37 23h2v1h-2zM40 23h2v1h-2zM43 23h1v1h-1zM4 24h1v1h-1zM6 24h1v1h-1zM8 24h3v1h-3zM13 24h3v1h-3zM17 24h1v1h-1zM19 24h6v1h-6zM26 24h1v1h-1zM28 24h1v1h-1zM32 24h1v1h-1zM40 24h3v1h-3zM5 25h1v1h-1zM7 25h3v1h-3zM11 25h1v1h-1zM16 25h1v1h-1zM19 25h2v1h-2zM23 25h1v1h-1zM28 25h1v1h-1zM30 25h1v1h-1zM32 25h1v1h-1zM34 25h2v1h-2zM37 25h3v1h-3zM41 25h4v1h-4zM6 26h1v1h-1zM10 26h3v1h-3zM14 26h2v1h-2zM19 26h6v1h-6zM26 26h2v1h-2zM29 26h4v1h-4zM37 26h2v1h-2zM42 26h1v1h-1zM4 27h2v1h-2zM8 27h1v1h-1zM11 27h2v1h-2zM14 27h1v1h-1zM16 27h7v1h-7zM24 27h5v1h-5zM30 27h1v1h-1zM32 27h1v1h-1zM36 27h1v1h-1zM39 27h1v1h-1zM41 27h2v1h-2zM4 28h1v1h-1zM6 28h2v1h-2zM10 28h2v1h-2zM13 28h2v1h-2zM16 28h2v1h-2zM19 28h1v1h-1zM26 28h3v1h-3zM33 28h1v1h-1zM37 28h1v1h-1zM44 28h1v1h-1zM4 29h1v1h-1zM6 29h1v1h-1zM9 29h1v1h-1zM12 29h3v1h-3zM16 29h2v1h-2zM21 29h3v1h-3zM27 29h4v1h-4zM32 29h1v1h-1zM35 29h1v1h-1zM37 29h5v1h-5zM43 29h2v1h-2zM5 30h3v1h-3zM10 30h1v1h-1zM12 30h4v1h-4zM17 30h2v1h-2zM21 30h3v1h-3zM25 30h1v1h-1zM27 30h1v1h-1zM30 30h2v1h-2zM33 30h2v1h-2zM36 30h1v1h-1zM38 30h1v1h-1zM40 30h1v1h-1zM43 30h1v1h-1zM4 31h1v1h-1zM6 31h1v1h-1zM13 31h1v1h-1zM15 31h2v1h-2zM19 31h2v1h-2zM22 31h1v1h-1zM24 31h1v1h-1zM26 31h1v1h-1zM30 31h1v1h-1zM32 31h1v1h-1zM34 31h6v1h-6zM41 31h1v1h-1zM5 32h2v1h-2zM8 32h1v1h-1zM10 32h1v1h-1zM12 32h2v1h-2zM16 32h2v1h-2zM20 32h4v1h-4zM25 32h2v1h-2zM29 32h3v1h-3zM33 32h1v1h-1zM35 32h2v1h-2zM38 32h1v1h-1zM41 32h3v1h-3zM4 33h2v1h-2zM8 33h2v1h-2zM13 33h1v1h-1zM15 33h3v1h-3zM19 33h1v1h-1zM21 33h1v1h-1zM25 33h1v1h-1zM27 33h1v1h-1zM31 33h2v1h-2zM34 33h1v1h-1zM37 33h1v1h-1zM39 33h2v1h-2zM43 33h2v1h-2zM4 34h1v1h-1zM7 34h1v1h-1zM10 34h1v1h-1zM12 34h1v1h-1zM14 34h1v1h-1zM17 34h2v1h-2zM20 34h1v1h-1zM23 34h2v1h-2zM26 34h1v1h-1zM30 34h1v1h-1zM34 34h1v1h-1zM36 34h4v1h-4zM42 34h1v1h-1zM4 35h1v1h-1zM6 35h4v1h-4zM11 35h1v1h-1zM14 35h2v1h-2zM18 35h2v1h-2zM25 35h3v1h-3zM32 35h1v1h-1zM34 35h1v1h-1zM37 35h5v1h-5zM44 35h1v1h-1zM4 36h1v1h-1zM6 36h3v1h-3zM10 36h1v1h-1zM12 36h5v1h-5zM18 36h4v1h-4zM25 36h5v1h-5zM32 36h3v1h-3zM36 36h7v1h-7zM44 36h1v1h-1zM12 37h1v1h-1zM15 37h3v1h-3zM21 37h1v1h-1zM23 37h3v1h-3zM27 37h2v1h-2zM35 37h2v1h-2zM40 37h1v1h-1zM43 37h2v1h-2zM4 38h7v1h-7zM13 38h2v1h-2zM16 38h1v1h-1zM21 38h3v1h-3zM26 38h1v1h-1zM28 38h1v1h-1zM31 38h2v1h-2zM34 38h3v1h-3zM38 38h1v1h-1zM40 38h1v1h-1zM42 38h1v1h-1zM4 39h1v1h-1zM10 39h1v1h-1zM13 39h3v1h-3zM17 39h1v1h-1zM19 39h2v1h-2zM25 39h7v1h-7zM36 39h1v1h-1zM40 39h2v1h-2zM43 39h2v1h-2zM4 40h1v1h-1zM6 40h3v1h-3zM10 40h1v1h-1zM12 40h1v1h-1zM15 40h1v1h-1zM17 40h1v1h-1zM20 40h1v1h-1zM22 40h1v1h-1zM24 40h3v1h-3zM28 40h4v1h-4zM34 40h1v1h-1zM36 40h5v1h-5zM42 40h1v1h-1zM44 40h1v1h-1zM4 41h1v1h-1zM6 41h3v1h-3zM10 41h1v1h-1zM12 41h3v1h-3zM18 41h2v1h-2zM22 41h2v1h-2zM25 41h5v1h-5zM35 41h1v1h-1zM37 41h1v1h-1zM39 41h1v1h-1zM43 41h2v1h-2zM4 42h1v1h-1zM6 42h3v1h-3zM10 42h1v1h-1zM12 42h2v1h-2zM16 42h4v1h-4zM23 42h1v1h-1zM29 42h1v1h-1zM31 42h2v1h-2zM35 42h7v1h-7zM43 42h1v1h-1zM4 43h1v1h-1zM10 43h1v1h-1zM13 43h3v1h-3zM17 43h5v1h-5zM23 43h2v1h-2zM26 43h1v1h-1zM29 43h1v1h-1zM32 43h1v1h-1zM34 43h1v1h-1zM36 43h1v1h-1zM38 43h1v1h-1zM40 43h1v1h-1zM43 43h1v1h-1zM4 44h7v1h-7zM13 44h2v1h-2zM16 44h2v1h-2zM20 44h1v1h-1zM22 44h2v1h-2zM25 44h1v1h-1zM29 44h3v1h-3zM33 44h1v1h-1zM35 44h1v1h-1zM37 44h1v1h-1zM39 44h3v1h-3z"/>
</svg>