<svg xmlns="http://www.w3.org/2000/svg" viewBox="0 0 49 49" shape-rendering="crispEdges" width="588" height="588">
<rect x="0" y="0" width="49" height="49" fill="#FFFFFF"/>
<path fill="#000000" d="M4 4h7v1h-7zM12 4h2v1h-2zM16 4h1v1h-1zM18 4h1v1h-1zM21 4h1v1h-1zM26 4h1v1h-1zM29 4h1v1h-1zM32 4h1v1h-1zM38 4h7v1h-7zM4 5h1v1h-1zM10 5h1v1h-1zM14 5h3v1h-3zM19 5h4v1h-4zM25 5h1v1h-1zM32 5h2v1h-2zM38 5h1v1h-1zM44 5h1v1h-1zM4 6h1v1h-1zM6 6h3v1h-3zM10 6h1v1h-1zM12 6h6v1h-6zM19 6h6v1h-6zM26 6h2v1h-2zM30 6h2v1h-2zM33 6h3v1h-3zM38 6h1v1h-1zM40 6h3v1h-3zM44 6h1v1h-1zM4 7h1v1h-1zM6 7h3v1h-3zM10 7h1v1h-1zM13 7h1v1h-1zM15 7h1v1h-1zM17 7h1v1h-1zM20 7h2v1h-2zM24 7h1v1h-1zM26 7h1v1h-1zM30 7h1v1h-1zM32 7h1v1h-1zM36 7h1v1h-1zM38 7h1v1h-1zM40 7h3v1h-3zM44 7h1v1h-1zM4 8h1v1h-1zM6 8h3v1h-3zM10 8h1v1h-1zM12 8h4v1h-4zM17 8h1v1h-1zM22 8h1v1h-1zM25 8h1v1h-1zM27 8h4v1h-4zM34 8h3v1h-3zM38 8h1v1h-1zM40 8h3v1h-3zM44 8h1v1h-1zM4 9h1v1h-1zM10 9h1v1h-1zM13 9h2v1h-2zM17 9h1v1h-1zM19 9h1v1h-1zM21 9h2v1h-2zM24 9h3v1h-3zM29 9h2v1h-2zM34 9h1v1h-1zM38 9h1v1h-1zM44 9h1v1h-1zM4 10h7v1h-7zM12 10h1v1h-1zM14 10h1v1h-1zM16 10h1v1h-1zM18 10h1v1h-1zM20 10h1v1h-1zM22 10h1v1h-1zM24 10h1v1h-1zM26 10h1v1h-1zM28 10h1v1h-1zM30 10h1v1h-1zM32 10h1v1h-1zM34 10h1v1h-1zM36 10h1v1h-1zM38 10h7v1h-7zM12 11h2v1h-2zM16 11h1v1h-1zM20 11h1v1h-1zM23 11h2v1h-2zM28 11h1v1h-1zM34 11h3v1h-3zM9 12h2v1h-2zM15 12h3v1h-3zM20 12h3v1h-3zM25 12h1v1h-1zM27 12h5v1h-5zM33 12h1v1h-1zM35 12h2v1h-2zM38 12h1v1h-1zM40 12h1v1h-1zM42 12h1v1h-1zM44 12h1v1h-1zM4 13h2v1h-2zM7 13h3v1h-3zM14 13h1v1h-1zM22 13h1v1h-1zM27 13h2v1h-2zM31 13h1v1h-1zM33 13h3v1h-3zM40 13h1v1h-1zM4 14h3v1h-3zM8 14h1v1h-1zM10 14h1v1h-1zM12 14h6v1h-6zM19 14h2v1h-2zM22 14h1v1h-1zM24 14h1v1h-1zM28 14h6v1h-6zM36 14h1v1h-1zM38 14h3v1h-3zM43 14h1v1h-1zM4 15h2v1h-2zM7 15h1v1h-1zM11 15h4v1h-4zM18 15h1v1h-1zM21 15h1v1h-1zM23 15h1v1h-1zM27 15h1v1h-1zM29 15h1v1h-1zM35 15h2v1h-2zM38 15h1v1h-1zM41 15h1v1h-1zM43 15h1v1h-1zM5 16h2v1h-2zM8 16h3v1h-3zM12 16h1v1h-1zM14 16h1v1h-1zM19 16h7v1h-7zM28 16h3v1h-3zM32 16h1v1h-1zM43 16h1v1h-1zM4 17h3v1h-3zM9 17h1v1h-1zM12 17h1v1h-1zM15 17h2v1h-2zM18 17h3v1h-3zM22 17h2v1h-2zM26 17h2v1h-2zM30 17h1v1h-1zM32 17h2v1h-2zM39 17h3v1h-3zM44 17h1v1h-1zM4 18h4v1h-4zM9 18h6v1h-6zM16 18h1v1h-1zM22 18h2v1h-2zM25 18h2v1h-2zM29 18h1v1h-1zM34 18h1v1h-1zM36 18h2v1h-2zM39 18h1v1h-1zM41 18h1v1h-1zM4 19h2v1h-2zM8 19h1v1h-1zM12 19h2v1h-2zM16 19h1v1h-1zM18 19h2v1h-2zM21 19h2v1h-2zM24 19h2v1h-2zM27 19h1v1h-1zM30 19h2v1h-2zM36 19h2v1h-2zM39 19h1v1h-1zM41 19h2v1h-2zM44 19h1v1h-1zM5 20h8v1h-8zM14 20h1v1h-1zM16 20h1v1h-1zM18 20h1v1h-1zM22 20h2v1h-2zM25 20h2v1h-2zM29 20h2v1h-2zM32 20h2v1h-2zM36 20h2v1h-2zM39 20h1v1h-1zM41 20h4v1h-4zM4 21h1v1h-1zM6 21h4v1h-4zM16 21h2v1h-2zM20 21h1v1h-1zM23 21h1v1h-1zM25 21h1v1h-1zM27 21h3v1h-3zM31 21h2v1h-2zM35 21h1v1h-1zM37 21h6v1h-6zM44 21h1v1h-1zM5 22h3v1h-3zM9 22h2v1h-2zM14 22h1v1h-1zM19 22h1v1h-1zM22 22h1v1h-1zM25 22h11v1h-11zM37 22h4v1h-4zM44 22h1v1h-1zM4 23h3v1h-3zM8 23h1v1h-1zM13 23h1v1h-1zM15 23h1v1h-1zM18 23h4v1h-4zM24 23h4v1h-4zM29 23h4v1h-4zM36 23h1v1h-1zM38 23h1v1h-1zM40 23h2v1h-2zM4 24h1v1h-1zM6 24h6v1h-6zM13 24h3v1h-3zM20 24h1v1h-1zM23 24h3v1h-3zM27 24h6v1h-6zM34 24h2v1h-2zM39 24h2v1h-2zM42 24h1v1h-1zM4 25h4v1h-4zM9 25h1v1h-1zM11 25h1v1h-1zM13 25h2v1h-2zM16 25h1v1h-1zM18 25h1v1h-1zM21 25h1v1h-1zM23 25h3v1h-3zM28 25h2v1h-2zM31 25h1v1h-1zM35 25h2v1h-2zM40 25h2v1h-2zM4 26h1v1h-1zM7 26h1v1h-1zM9 26h2v1h-2zM12 26h1v1h-1zM15 26h1v1h-1zM17 26h1v1h-1zM19 26h3v1h-3zM23 26h2v1h-2zM26 26h2v1h-2zM30 26h3v1h-3zM38 26h5v1h-5zM4 27h1v1h-1zM6 27h1v1h-1zM8 27h1v1h-1zM11 27h1v1h-1zM13 27h2v1h-2zM16 27h3v1h-3zM20 27h1v1h-1zM24 27h1v1h-1zM26 27h3v1h-3zM30 27h3v1h-3zM36 27h2v1h-2zM40 27h1v1h-1zM44 27h1v1h-1zM5 28h1v1h-1zM9 28h2v1h-2zM12 28h4v1h-4zM17 28h5v1h-5zM23 28h3v1h-3zM29 28h2v1h-2zM32 28h1v1h-1zM35 28h2v1h-2zM38 28h1v1h-1zM41 28h2v1h-2zM4 29h1v1h-1zM6 29h1v1h-1zM8 29h1v1h-1zM11 29h1v1h-1zM15 29h3v1h-3zM19 29h3v1h-3zM25 29h1v1h-1zM27 29h3v1h-3zM31 29h2v1h-2zM35 29h1v1h-1zM38 29h4v1h-4zM44 29h1v1h-1zM10 30h1v1h-1zM13 30h6v1h-6zM21 30h2v1h-2zM25 30h1v1h-1zM28 30h1v1h-1zM30 30h2v1h-2zM33 30h2v1h-2zM36 30h2v1h-2zM39 30h2v1h-2zM4 31h1v1h-1zM7 31h1v1h-1zM9 31h1v1h-1zM14 31h1v1h-1zM16 31h1v1h-1zM18 31h2v1h-2zM22 31h1v1h-1zM24 31h2v1h-2zM27 31h2v1h-2zM31 31h1v1h-1zM34 31h2v1h-2zM37 31h6v1h-6zM44 31h1v1h-1zM5 32h1v1h-1zM8 32h3v1h-3zM12 32h2v1h-2zM16 32h2v1h-2zM20 32h3v1h-3zM25 32h3v1h-3zM29 32h5v1h-5zM35 32h1v1h-1zM37 32h1v1h-1zM41 32h3v1h-3zM4 33h1v1h-1zM7 33h1v1h-1zM9 33h1v1h-1zM13 33h1v1h-1zM16 33h1v1h-1zM21 33h1v1h-1zM25 33h1v1h-1zM27 33h1v1h-1zM29 33h1v1h-1zM34 33h1v1h-1zM36 33h2v1h-2zM39 33h2v1h-2zM44 33h1v1h-1zM4 34h4v1h-4zM9 34h3v1h-3zM14 34h2v1h-2zM18 34h1v1h-1zM20 34h2v1h-2zM24 34h1v1h-1zM30 34h2v1h-2zM34 34h1v1h-1zM36 34h2v1h-2zM41 34h1v1h-1zM44 34h1v1h-1zM4 35h1v1h-1zM6 35h1v1h-1zM8 35h2v1h-2zM11 35h1v1h-1zM14 35h7v1h-7zM23 35h3v1h-3zM27 35h1v1h-1zM35 35h2v1h-2zM38 35h4v1h-4zM43 35h2v1h-2zM4 36h1v1h-1zM6 36h2v1h-2zM9 36h2v1h-2zM12 36h3v1h-3zM17 36h4v1h-4zM25 36h5v1h-5zM31 36h3v1h-3zM35 36h8v1h-8zM44 36h1v1h-1zM12 37h5v1h-5zM18 37h1v1h-1zM22 37h1v1h-1zM24 37h2v1h-2zM27 37h3v1h-3zM31 37h1v1h-1zM33 37h2v1h-2zM36 37h1v1h-1zM40 37h2v1h-2zM4 38h7v1h-7zM15 38h1v1h-1zM17 38h3v1h-3zM23 38h3v1h-3zM27 38h1v1h-1zM30 38h4v1h-4zM35 38h2v1h-2zM38 38h1v1h-1zM40 38h1v1h-1zM42 38h1v1h-1zM4 39h1v1h-1zM10 39h1v1h-1zM12 39h2v1h-2zM15 39h3v1h-3zM20 39h1v1h-1zM23 39h1v1h-1zM25 39h1v1h-1zM28 39h1v1h-1zM30 39h1v1h-1zM33 39h2v1h-2zM36 39h1v1h-1zM40 39h2v1h-2zM44 39h1v1h-1zM4 40h1v1h-1zM6 40h3v1h-3zM10 40h1v1h-1zM13 40h1v1h-1zM15 40h1v1h-1zM17 40h3v1h-3zM21 40h2v1h-2zM27 40h7v1h-7zM35 40h7v1h-7zM4 41h1v1h-1zM6 41h3v1h-3zM10 41h1v1h-1zM21 41h3v1h-3zM26 41h6v1h-6zM34 41h1v1h-1zM36 41h1v1h-1zM39 41h1v1h-1zM41 41h2v1h-2zM44 41h1v1h-1zM4 42h1v1h-1zM6 42h3v1h-3zM10 42h1v1h-1zM13 42h2v1h-2zM16 42h1v1h-1zM19 42h1v1h-1zM23 42h1v1h-1zM31 42h2v1h-2zM37 42h4v1h-4zM42 42h2v1h-2zM4 43h1v1h-1zM10 43h1v1h-1zM15 43h1v1h-1zM21 43h3v1h-3zM26 43h1v1h-1zM29 43h3v1h-3zM34 43h1v1h-1zM37 43h1v1h-1zM40 43h2v1h-2zM44 43h1v1h-1zM4 44h7v1h-7zM13 44h2v1h-2zM18 44h1v1h-1zM23 44h3v1h-3zM30 44h2v1h-2zM33 44h1v1h-1zM35 44h1v1h-1zM37 44h1v1h-1zM39 44h2v1h-2z"/>
</svg>