<svg xmlns="http://www.w3.org/2000/svg" viewBox="0 0 49 49" shape-rendering="crispEdges" width="588" height="588">
<rect x="0" y="0" width="49" height="49" fill="#FFFFFF"/>
<path fill="#000000" d="M4 4h7v1h-7zM12 4h1v1h-1zM17 4h3v1h-3zM24 4h1v1h-1zM30 4h2v1h-2zM33 4h1v1h-1zM35 4h2v1h-2zM38 4h7v1h-7zM4 5h1v1h-1zM10 5h1v1h-1zM12 5h1v1h-1zM14 5h1v1h-1zM16 5h1v1h-1zM18 5h2v1h-2zM21 5h2v1h-2zM25 5h2v1h-2zM31 5h2v1h-2zM34 5h1v1h-1zM36 5h1v1h-1zM38 5h1v1h-1zM44 5h1v1h-1zM4 6h1v1h-1zM6 6h3v1h-3zM10 6h1v1h-1zM15 6h1v1h-1zM18 6h3v1h-3zM22 6h2v1h-2zM25 6h1v1h-1zM27 6h2v1h-2zM30 6h3v1h-3zM34 6h2v1h-2zM38 6h1v1h-1zM40 6h3v1h-3zM44 6h1v1h-1zM4 7h1v1h-1zM6 7h3v1h-3zM10 7h1v1h-1zM12 7h1v1h-1zM14 7h1v1h-1zM16 7h2v1h-2zM21 7h2v1h-2zM26 7h1v1h-1zM28 7h2v1h-2zM31 7h1v1h-1zM33 7h3v1h-3zM38 7h1v1h-1zM40 7h3v1h-3zM44 7h1v1h-1zM4 8h1v1h-1zM6 8h3v1h-3zM10 8h1v1h-1zM12 8h1v1h-1zM14 8h2v1h-2zM19 8h1v1h-1zM23 8h2v1h-2zM26 8h3v1h-3zM31 8h1v1h-1zM34 8h1v1h-1zM38 8h1v1h-1zM40 8h3v1h-3zM44 8h1v1h-1zM4 9h1v1h-1zM10 9h1v1h-1zM12 9h1v1h-1zM14 9h1v1h-1zM16 9h1v1h-1zM18 9h1v1h-1zM21 9h1v1h-1zM23 9h1v1h-1zM26 9h1v1h-1zM28 9h1v1h-1zM31 9h1v1h-1zM35 9h2v1h-2zM38 9h1v1h-1zM44 9h1v1h-1zM4 10h7v1h-7zM12 10h1v1h-1zM14 10h1v1h-1zM16 10h1v1h-1zM18 10h1v1h-1zM20 10h1v1h-1zM22 10h1v1h-1zM24 10h1v1h-1zM26 10h1v1h-1zM28 10h1v1h-1zM30 10h1v1h-1zM32 10h1v1h-1zM34 10h1v1h-1zM36 10h1v1h-1zM38 10h7v1h-7zM14 11h2v1h-2zM19 11h1v1h-1zM21 11h7v1h-7zM31 11h3v1h-3zM35 11h2v1h-2zM7 12h1v1h-1zM10 12h1v1h-1zM13 12h2v1h-2zM16 12h2v1h-2zM19 12h1v1h-1zM22 12h1v1h-1zM26 12h1v1h-1zM28 12h3v1h-3zM32 12h1v1h-1zM35 12h2v1h-2zM39 12h3v1h-3zM43 12h2v1h-2zM7 13h3v1h-3zM11 13h3v1h-3zM15 13h7v1h-7zM23 13h4v1h-4zM29 13h2v1h-2zM32 13h1v1h-1zM36 13h4v1h-4zM41 13h4v1h-4zM5 14h3v1h-3zM10 14h1v1h-1zM14 14h3v1h-3zM18 14h1v1h-1zM20 14h1v1h-1zM22 14h2v1h-2zM25 14h1v1h-1zM28 14h1v1h-1zM32 14h2v1h-2zM35 14h1v1h-1zM37 14h6v1h-6zM5 15h1v1h-1zM7 15h3v1h-3zM12 15h1v1h-1zM14 15h1v1h-1zM16 15h2v1h-2zM19 15h1v1h-1zM21 15h2v1h-2zM24 15h2v1h-2zM27 15h2v1h-2zM30 15h2v1h-2zM34 15h1v1h-1zM37 15h2v1h-2zM40 15h1v1h-1zM42 15h1v1h-1zM4 16h1v1h-1zM6 16h2v1h-2zM10 16h6v1h-6zM17 16h1v1h-1zM20 16h1v1h-1zM22 16h1v1h-1zM24 16h1v1h-1zM27 16h2v1h-2zM30 16h4v1h-4zM35 16h1v1h-1zM37 16h1v1h-1zM39 16h1v1h-1zM41 16h1v1h-1zM43 16h2v1h-2zM6 17h4v1h-4zM12 17h1v1h-1zM14 17h3v1h-3zM18 17h2v1h-2zM23 17h1v1h-1zM28 17h4v1h-4zM33 17h2v1h-2zM37 17h2v1h-2zM41 17h1v1h-1zM43 17h1v1h-1zM4 18h3v1h-3zM8 18h1v1h-1zM10 18h7v1h-7zM19 18h4v1h-4zM24 18h1v1h-1zM26 18h3v1h-3zM31 18h2v1h-2zM34 18h1v1h-1zM36 18h1v1h-1zM38 18h1v1h-1zM41 18h1v1h-1zM43 18h2v1h-2zM6 19h2v1h-2zM9 19h1v1h-1zM11 19h1v1h-1zM14 19h6v1h-6zM21 19h1v1h-1zM23 19h2v1h-2zM30 19h1v1h-1zM32 19h2v1h-2zM35 19h1v1h-1zM38 19h1v1h-1zM40 19h1v1h-1zM43 19h1v1h-1zM8 20h3v1h-3zM13 20h1v1h-1zM19 20h4v1h-4zM24 20h1v1h-1zM28 20h2v1h-2zM31 20h1v1h-1zM33 20h3v1h-3zM39 20h1v1h-1zM44 20h1v1h-1zM5 21h1v1h-1zM8 21h2v1h-2zM11 21h3v1h-3zM15 21h2v1h-2zM19 21h1v1h-1zM21 21h3v1h-3zM25 21h1v1h-1zM27 21h1v1h-1zM32 21h1v1h-1zM34 21h1v1h-1zM36 21h1v1h-1zM38 21h2v1h-2zM43 21h2v1h-2zM6 22h1v1h-1zM10 22h2v1h-2zM14 22h3v1h-3zM18 22h1v1h-1zM20 22h8v1h-8zM29 22h2v1h-2zM34 22h1v1h-1zM38 22h1v1h-1zM40 22h2v1h-2zM43 22h2v1h-2zM5 23h3v1h-3zM9 23h1v1h-1zM14 23h2v1h-2zM17 23h1v1h-1zM20 23h1v1h-1zM22 23h2v1h-2zM25 23h1v1h-1zM29 23h1v1h-1zM31 23h4v1h-4zM36 23h2v1h-2zM39 23h1v1h-1zM41 23h1v1h-1zM43 23h2v1h-2zM4 24h1v1h-1zM6 24h1v1h-1zM10 24h2v1h-2zM13 24h2v1h-2zM17 24h3v1h-3zM23 24h3v1h-3zM28 24h2v1h-2zM33 24h3v1h-3zM37 24h2v1h-2zM40 24h1v1h-1zM42 24h3v1h-3zM4 25h1v1h-1zM11 25h2v1h-2zM14 25h2v1h-2zM17 25h4v1h-4zM27 25h1v1h-1zM32 25h3v1h-3zM37 25h3v1h-3zM42 25h3v1h-3zM4 26h2v1h-2zM8 26h1v1h-1zM10 26h1v1h-1zM13 26h1v1h-1zM15 26h1v1h-1zM18 26h1v1h-1zM20 26h2v1h-2zM25 26h3v1h-3zM29 26h1v1h-1zM32 26h1v1h-1zM35 26h6v1h-6zM43 26h1v1h-1zM5 27h5v1h-5zM12 27h1v1h-1zM14 27h1v1h-1zM19 27h2v1h-2zM22 27h2v1h-2zM25 27h3v1h-3zM29 27h1v1h-1zM32 27h1v1h-1zM34 27h2v1h-2zM41 27h4v1h-4zM4 28h3v1h-3zM8 28h1v1h-1zM10 28h2v1h-2zM14 28h1v1h-1zM18 28h1v1h-1zM20 28h1v1h-1zM24 28h1v1h-1zM27 28h1v1h-1zM30 28h4v1h-4zM36 28h4v1h-4zM42 28h2v1h-2zM4 29h1v1h-1zM6 29h2v1h-2zM9 29h1v1h-1zM13 29h2v1h-2zM17 29h1v1h-1zM22 29h1v1h-1zM26 29h1v1h-1zM29 29h1v1h-1zM33 29h3v1h-3zM37 29h1v1h-1zM41 29h1v1h-1zM43 29h1v1h-1zM5 30h7v1h-7zM16 30h5v1h-5zM22 30h1v1h-1zM26 30h3v1h-3zM30 30h1v1h-1zM32 30h1v1h-1zM34 30h1v1h-1zM36 30h1v1h-1zM38 30h1v1h-1zM40 30h1v1h-1zM43 30h2v1h-2zM4 31h1v1h-1zM12 31h2v1h-2zM15 31h1v1h-1zM17 31h1v1h-1zM20 31h2v1h-2zM23 31h1v1h-1zM26 31h1v1h-1zM29 31h2v1h-2zM32 31h2v1h-2zM36 31h1v1h-1zM43 31h2v1h-2zM4 32h7v1h-7zM18 32h2v1h-2zM21 32h3v1h-3zM26 32h3v1h-3zM32 32h2v1h-2zM36 32h1v1h-1zM44 32h1v1h-1zM5 33h2v1h-2zM9 33h1v1h-1zM11 33h3v1h-3zM15 33h1v1h-1zM17 33h2v1h-2zM20 33h4v1h-4zM27 33h5v1h-5zM35 33h1v1h-1zM39 33h1v1h-1zM41 33h4v1h-4zM4 34h1v1h-1zM6 34h1v1h-1zM10 34h1v1h-1zM13 34h1v1h-1zM16 34h2v1h-2zM22 34h5v1h-5zM33 34h1v1h-1zM35 34h2v1h-2zM39 34h1v1h-1zM43 34h2v1h-2zM6 35h2v1h-2zM11 35h1v1h-1zM13 35h5v1h-5zM19 35h2v1h-2zM22 35h1v1h-1zM24 35h3v1h-3zM28 35h6v1h-6zM35 35h3v1h-3zM41 35h1v1h-1zM4 36h1v1h-1zM6 36h1v1h-1zM8 36h1v1h-1zM10 36h1v1h-1zM12 36h1v1h-1zM14 36h1v1h-1zM17 36h1v1h-1zM22 36h2v1h-2zM26 36h2v1h-2zM35 36h9v1h-9zM12 37h1v1h-1zM15 37h2v1h-2zM20 37h1v1h-1zM22 37h2v1h-2zM28 37h3v1h-3zM32 37h1v1h-1zM35 37h2v1h-2zM40 37h1v1h-1zM42 37h3v1h-3zM4 38h7v1h-7zM13 38h1v1h-1zM15 38h1v1h-1zM20 38h2v1h-2zM24 38h5v1h-5zM33 38h1v1h-1zM36 38h1v1h-1zM38 38h1v1h-1zM40 38h2v1h-2zM43 38h1v1h-1zM4 39h1v1h-1zM10 39h1v1h-1zM14 39h1v1h-1zM16 39h1v1h-1zM18 39h1v1h-1zM23 39h3v1h-3zM27 39h3v1h-3zM32 39h2v1h-2zM35 39h2v1h-2zM40 39h1v1h-1zM42 39h3v1h-3zM4 40h1v1h-1zM6 40h3v1h-3zM10 40h1v1h-1zM13 40h1v1h-1zM15 40h1v1h-1zM17 40h1v1h-1zM21 40h1v1h-1zM26 40h1v1h-1zM28 40h2v1h-2zM31 40h2v1h-2zM36 40h5v1h-5zM43 40h1v1h-1zM4 41h1v1h-1zM6 41h3v1h-3zM10 41h1v1h-1zM12 41h2v1h-2zM15 41h2v1h-2zM19 41h2v1h-2zM23 41h1v1h-1zM25 41h2v1h-2zM29 41h2v1h-2zM32 41h2v1h-2zM36 41h3v1h-3zM40 41h4v1h-4zM4 42h1v1h-1zM6 42h3v1h-3zM10 42h1v1h-1zM15 42h2v1h-2zM20 42h2v1h-2zM23 42h1v1h-1zM25 42h3v1h-3zM33 42h1v1h-1zM40 42h1v1h-1zM42 42h1v1h-1zM44 42h1v1h-1zM4 43h1v1h-1zM10 43h1v1h-1zM13 43h2v1h-2zM16 43h5v1h-5zM24 43h2v1h-2zM27 43h2v1h-2zM32 43h2v1h-2zM35 43h2v1h-2zM38 43h2v1h-2zM42 43h2v1h-2zM4 44h7v1h-7zM14 44h1v1h-1zM17 44h1v1h-1zM19 44h1v1h-1zM29 44h1v1h-1zM33 44h1v1h-1zM36 44h1v1h-1zM39 44h5v1h-5z"/>
</svg>