<svg xmlns="http://www.w3.org/2000/svg" viewBox="0 0 49 49" shape-rendering="crispEdges" width="588" height="588">
<rect x="0" y="0" width="49" height="49" fill="#FFFFFF"/>
<path fill="#000000" d="M4 4h7v1h-7zM13 4h1v1h-1zM15 4h1v1h-1zM18 4h4v1h-4zM24 4h1v1h-1zM26 4h9v1h-9zM38 4h7v1h-7zM4 5h1v1h-1zM10 5h1v1h-1zM12 5h7v1h-7zM21 5h3v1h-3zM26 5h1v1h-1zM28 5h3v1h-3zM33 5h1v1h-1zM35 5h2v1h-2zM38 5h1v1h-1zM44 5h1v1h-1zM4 6h1v1h-1zM6 6h3v1h-3zM10 6h1v1h-1zM14 6h2v1h-2zM18 6h2v1h-2zM22 6h1v1h-1zM24 6h5v1h-5zM30 6h2v1h-2zM36 6h1v1h-1zM38 6h1v1h-1zM40 6h3v1h-3zM44 6h1v1h-1zM4 7h1v1h-1zM6 7h3v1h-3zM10 7h1v1h-1zM13 7h4v1h-4zM18 7h5v1h-5zM28 7h1v1h-1zM31 7h4v1h-4zM38 7h1v1h-1zM40 7h3v1h-3zM44 7h1v1h-1zM4 8h1v1h-1zM6 8h3v1h-3zM10 8h1v1h-1zM14 8h2v1h-2zM18 8h2v1h-2zM23 8h2v1h-2zM27 8h2v1h-2zM31 8h1v1h-1zM34 8h1v1h-1zM38 8h1v1h-1zM40 8h3v1h-3zM44 8h1v1h-1zM4 9h1v1h-1zM10 9h1v1h-1zM12 9h3v1h-3zM18 9h2v1h-2zM21 9h3v1h-3zM25 9h2v1h-2zM34 9h3v1h-3zM38 9h1v1h-1zM44 9h1v1h-1zM4 10h7v1h-7zM12 10h1v1h-1zM14 10h1v1h-1zM16 10h1v1h-1zM18 10h1v1h-1zM20 10h1v1h-1zM22 10h1v1h-1zM24 10h1v1h-1zM26 10h1v1h-1zM28 10h1v1h-1zM30 10h1v1h-1zM32 10h1v1h-1zM34 10h1v1h-1zM36 10h1v1h-1zM38 10h7v1h-7zM12 11h1v1h-1zM14 11h2v1h-2zM19 11h1v1h-1zM21 11h7v1h-7zM31 11h3v1h-3zM35 11h2v1h-2zM8 12h4v1h-4zM13 12h1v1h-1zM15 12h2v1h-2zM18 12h7v1h-7zM27 12h2v1h-2zM33 12h1v1h-1zM38 12h2v1h-2zM43 12h1v1h-1zM4 13h1v1h-1zM6 13h1v1h-1zM8 13h1v1h-1zM11 13h2v1h-2zM17 13h1v1h-1zM20 13h1v1h-1zM22 13h2v1h-2zM26 13h4v1h-4zM31 13h4v1h-4zM38 13h1v1h-1zM40 13h2v1h-2zM44 13h1v1h-1zM6 14h5v1h-5zM13 14h1v1h-1zM17 14h1v1h-1zM19 14h1v1h-1zM21 14h1v1h-1zM24 14h1v1h-1zM26 14h2v1h-2zM29 14h3v1h-3zM34 14h1v1h-1zM36 14h1v1h-1zM43 14h2v1h-2zM4 15h1v1h-1zM6 15h3v1h-3zM12 15h1v1h-1zM15 15h2v1h-2zM18 15h3v1h-3zM22 15h2v1h-2zM25 15h2v1h-2zM28 15h2v1h-2zM31 15h7v1h-7zM39 15h3v1h-3zM43 15h2v1h-2zM4 16h1v1h-1zM6 16h2v1h-2zM10 16h1v1h-1zM12 16h2v1h-2zM15 16h2v1h-2zM22 16h2v1h-2zM26 16h6v1h-6zM33 16h1v1h-1zM37 16h3v1h-3zM4 17h1v1h-1zM11 17h1v1h-1zM15 17h3v1h-3zM21 17h8v1h-8zM32 17h1v1h-1zM35 17h2v1h-2zM39 17h2v1h-2zM42 17h1v1h-1zM44 17h1v1h-1zM5 18h4v1h-4zM10 18h3v1h-3zM16 18h5v1h-5zM24 18h2v1h-2zM27 18h4v1h-4zM32 18h1v1h-1zM34 18h1v1h-1zM36 18h3v1h-3zM40 18h2v1h-2zM44 18h1v1h-1zM5 19h5v1h-5zM13 19h2v1h-2zM16 19h2v1h-2zM20 19h1v1h-1zM30 19h1v1h-1zM33 19h2v1h-2zM40 19h2v1h-2zM43 19h2v1h-2zM8 20h3v1h-3zM18 20h1v1h-1zM20 20h1v1h-1zM22 20h2v1h-2zM25 20h3v1h-3zM29 20h1v1h-1zM31 20h3v1h-3zM35 20h1v1h-1zM39 20h1v1h-1zM44 20h1v1h-1zM4 21h2v1h-2zM7 21h3v1h-3zM11 21h2v1h-2zM16 21h2v1h-2zM19 21h1v1h-1zM22 21h1v1h-1zM26 21h1v1h-1zM31 21h2v1h-2zM37 21h4v1h-4zM44 21h1v1h-1zM4 22h1v1h-1zM7 22h1v1h-1zM9 22h5v1h-5zM15 22h2v1h-2zM18 22h2v1h-2zM23 22h2v1h-2zM26 22h2v1h-2zM29 22h1v1h-1zM31 22h1v1h-1zM33 22h1v1h-1zM36 22h4v1h-4zM41 22h2v1h-2zM44 22h1v1h-1zM5 23h3v1h-3zM9 23h1v1h-1zM14 23h4v1h-4zM19 23h1v1h-1zM21 23h1v1h-1zM23 23h5v1h-5zM32 23h3v1h-3zM36 23h2v1h-2zM39 23h1v1h-1zM41 23h1v1h-1zM43 23h2v1h-2zM4 24h2v1h-2zM8 24h3v1h-3zM12 24h2v1h-2zM15 24h1v1h-1zM20 24h1v1h-1zM23 24h1v1h-1zM26 24h1v1h-1zM28 24h1v1h-1zM30 24h1v1h-1zM32 24h1v1h-1zM34 24h1v1h-1zM36 24h2v1h-2zM39 24h3v1h-3zM43 24h1v1h-1zM4 25h1v1h-1zM6 25h4v1h-4zM11 25h1v1h-1zM13 25h1v1h-1zM16 25h2v1h-2zM20 25h2v1h-2zM24 25h3v1h-3zM28 25h1v1h-1zM30 25h3v1h-3zM36 25h1v1h-1zM38 25h1v1h-1zM40 25h1v1h-1zM44 25h1v1h-1zM4 26h5v1h-5zM10 26h2v1h-2zM14 26h1v1h-1zM16 26h2v1h-2zM19 26h1v1h-1zM22 26h3v1h-3zM28 26h1v1h-1zM30 26h2v1h-2zM33 26h2v1h-2zM41 26h2v1h-2zM44 26h1v1h-1zM6 27h1v1h-1zM8 27h2v1h-2zM15 27h1v1h-1zM17 27h3v1h-3zM21 27h2v1h-2zM24 27h2v1h-2zM30 27h1v1h-1zM33 27h2v1h-2zM36 27h1v1h-1zM38 27h2v1h-2zM43 27h1v1h-1zM6 28h2v1h-2zM9 28h4v1h-4zM17 28h2v1h-2zM23 28h2v1h-2zM26 28h2v1h-2zM29 28h3v1h-3zM33 28h1v1h-1zM35 28h3v1h-3zM39 28h1v1h-1zM41 28h4v1h-4zM4 29h1v1h-1zM6 29h2v1h-2zM12 29h1v1h-1zM15 29h2v1h-2zM18 29h4v1h-4zM23 29h3v1h-3zM27 29h2v1h-2zM30 29h3v1h-3zM36 29h1v1h-1zM38 29h3v1h-3zM42 29h3v1h-3zM4 30h3v1h-3zM8 30h1v1h-1zM10 30h2v1h-2zM13 30h1v1h-1zM17 30h2v1h-2zM20 30h1v1h-1zM25 30h3v1h-3zM30 30h3v1h-3zM36 30h3v1h-3zM43 30h2v1h-2zM4 31h1v1h-1zM9 31h1v1h-1zM11 31h5v1h-5zM21 31h1v1h-1zM30 31h1v1h-1zM33 31h1v1h-1zM35 31h2v1h-2zM38 31h1v1h-1zM41 31h1v1h-1zM43 31h1v1h-1zM5 32h1v1h-1zM7 32h5v1h-5zM18 32h2v1h-2zM21 32h3v1h-3zM26 32h3v1h-3zM32 32h2v1h-2zM36 32h1v1h-1zM4 33h1v1h-1zM6 33h2v1h-2zM9 33h1v1h-1zM11 33h2v1h-2zM15 33h1v1h-1zM18 33h2v1h-2zM21 33h1v1h-1zM23 33h3v1h-3zM27 33h2v1h-2zM30 33h1v1h-1zM34 33h2v1h-2zM37 33h1v1h-1zM39 33h4v1h-4zM44 33h1v1h-1zM7 34h1v1h-1zM9 34h2v1h-2zM12 34h2v1h-2zM15 34h2v1h-2zM19 34h4v1h-4zM25 34h1v1h-1zM28 34h2v1h-2zM31 34h1v1h-1zM33 34h3v1h-3zM37 34h1v1h-1zM40 34h1v1h-1zM42 34h1v1h-1zM44 34h1v1h-1zM6 35h2v1h-2zM11 35h1v1h-1zM17 35h1v1h-1zM19 35h1v1h-1zM21 35h1v1h-1zM23 35h1v1h-1zM25 35h5v1h-5zM31 35h3v1h-3zM35 35h3v1h-3zM41 35h1v1h-1zM4 36h2v1h-2zM9 36h3v1h-3zM16 36h1v1h-1zM22 36h6v1h-6zM30 36h1v1h-1zM33 36h1v1h-1zM36 36h5v1h-5zM43 36h2v1h-2zM12 37h4v1h-4zM17 37h2v1h-2zM20 37h1v1h-1zM26 37h1v1h-1zM31 37h3v1h-3zM35 37h2v1h-2zM40 37h1v1h-1zM44 37h1v1h-1zM4 38h7v1h-7zM12 38h2v1h-2zM16 38h1v1h-1zM21 38h1v1h-1zM23 38h2v1h-2zM26 38h2v1h-2zM29 38h1v1h-1zM31 38h1v1h-1zM34 38h3v1h-3zM38 38h1v1h-1zM40 38h1v1h-1zM42 38h1v1h-1zM44 38h1v1h-1zM4 39h1v1h-1zM10 39h1v1h-1zM12 39h1v1h-1zM15 39h1v1h-1zM18 39h3v1h-3zM22 39h1v1h-1zM24 39h3v1h-3zM28 39h2v1h-2zM31 39h2v1h-2zM36 39h1v1h-1zM40 39h2v1h-2zM43 39h1v1h-1zM4 40h1v1h-1zM6 40h3v1h-3zM10 40h1v1h-1zM12 40h2v1h-2zM17 40h2v1h-2zM20 40h1v1h-1zM23 40h1v1h-1zM25 40h1v1h-1zM27 40h2v1h-2zM30 40h1v1h-1zM35 40h7v1h-7zM43 40h2v1h-2zM4 41h1v1h-1zM6 41h3v1h-3zM10 41h1v1h-1zM14 41h1v1h-1zM17 41h2v1h-2zM21 41h2v1h-2zM24 41h1v1h-1zM27 41h2v1h-2zM31 41h1v1h-1zM34 41h2v1h-2zM39 41h1v1h-1zM44 41h1v1h-1zM4 42h1v1h-1zM6 42h3v1h-3zM10 42h1v1h-1zM13 42h1v1h-1zM15 42h1v1h-1zM19 42h5v1h-5zM26 42h3v1h-3zM31 42h1v1h-1zM33 42h2v1h-2zM37 42h1v1h-1zM42 42h3v1h-3zM4 43h1v1h-1zM10 43h1v1h-1zM13 43h1v1h-1zM16 43h1v1h-1zM18 43h2v1h-2zM23 43h7v1h-7zM33 43h1v1h-1zM36 43h1v1h-1zM39 43h1v1h-1zM41 43h4v1h-4zM4 44h7v1h-7zM14 44h1v1h-1zM17 44h1v1h-1zM19 44h1v1h-1zM29 44h1v1h-1zM33 44h1v1h-1zM36 44h1v1h-1zM39 44h5v1h-5z"/>
</svg>