<svg xmlns="http://www.w3.org/2000/svg" viewBox="0 0 45 45" shape-rendering="crispEdges" width="540" height="540">
<rect x="0" y="0" width="45" height="45" fill="#FFFFFF"/>
<path fill="#000000" d="M4 4h7v1h-7zM13 4h1v1h-1zM15 4h5v1h-5zM21 4h1v1h-1zM23 4h4v1h-4zM30 4h1v1h-1zM34 4h7v1h-7zM4 5h1v1h-1zM10 5h1v1h-1zM14 5h1v1h-1zM17 5h1v1h-1zM19 5h1v1h-1zM21 5h1v1h-1zM25 5h2v1h-2zM32 5h1v1h-1zM34 5h1v1h-1zM40 5h1v1h-1zM4 6h1v1h-1zM6 6h3v1h-3zM10 6h1v1h-1zM12 6h1v1h-1zM19 6h2v1h-2zM25 6h6v1h-6zM34 6h1v1h-1zM36 6h3v1h-3zM40 6h1v1h-1zM4 7h1v1h-1zM6 7h3v1h-3zM10 7h1v1h-1zM12 7h1v1h-1zM15 7h1v1h-1zM19 7h1v1h-1zM21 7h1v1h-1zM24 7h6v1h-6zM32 7h1v1h-1zM34 7h1v1h-1zM36 7h3v1h-3zM40 7h1v1h-1zM4 8h1v1h-1zM6 8h3v1h-3zM10 8h1v1h-1zM13 8h1v1h-1zM15 8h1v1h-1zM18 8h4v1h-4zM23 8h1v1h-1zM25 8h2v1h-2zM30 8h1v1h-1zM34 8h1v1h-1zM36 8h3v1h-3zM40 8h1v1h-1zM4 9h1v1h-1zM10 9h1v1h-1zM14 9h1v1h-1zM16 9h3v1h-3zM21 9h1v1h-1zM27 9h1v1h-1zM34 9h1v1h-1zM40 9h1v1h-1zM4 10h7v1h-7zM12 10h1v1h-1zM14 10h1v1h-1zM16 10h1v1h-1zM18 10h1v1h-1zM20 10h1v1h-1zM22 10h1v1h-1zM24 10h1v1h-1zM26 10h1v1h-1zM28 10h1v1h-1zM30 10h1v1h-1zM32 10h1v1h-1zM34 10h7v1h-7zM14 11h1v1h-1zM16 11h1v1h-1zM18 11h3v1h-3zM23 11h1v1h-1zM29 11h1v1h-1zM31 11h2v1h-2zM7 12h2v1h-2zM10 12h2v1h-2zM13 12h1v1h-1zM15 12h1v1h-1zM17 12h2v1h-2zM20 12h3v1h-3zM24 12h2v1h-2zM27 12h1v1h-1zM30 12h1v1h-1zM32 12h1v1h-1zM37 12h2v1h-2zM5 13h2v1h-2zM8 13h1v1h-1zM11 13h2v1h-2zM14 13h2v1h-2zM17 13h3v1h-3zM28 13h4v1h-4zM35 13h2v1h-2zM38 13h1v1h-1zM7 14h1v1h-1zM10 14h1v1h-1zM12 14h1v1h-1zM17 14h1v1h-1zM19 14h3v1h-3zM24 14h3v1h-3zM29 14h1v1h-1zM31 14h1v1h-1zM33 14h2v1h-2zM37 14h4v1h-4zM4 15h1v1h-1zM6 15h2v1h-2zM9 15h1v1h-1zM12 15h2v1h-2zM15 15h9v1h-9zM25 15h1v1h-1zM27 15h1v1h-1zM30 15h1v1h-1zM33 15h2v1h-2zM36 15h1v1h-1zM38 15h3v1h-3zM8 16h3v1h-3zM13 16h1v1h-1zM17 16h2v1h-2zM22 16h3v1h-3zM26 16h1v1h-1zM32 16h1v1h-1zM34 16h2v1h-2zM37 16h1v1h-1zM40 16h1v1h-1zM6 17h1v1h-1zM9 17h1v1h-1zM12 17h1v1h-1zM16 17h2v1h-2zM20 17h1v1h-1zM22 17h2v1h-2zM25 17h4v1h-4zM31 17h1v1h-1zM33 17h1v1h-1zM36 17h1v1h-1zM38 17h1v1h-1zM5 18h6v1h-6zM12 18h1v1h-1zM14 18h1v1h-1zM16 18h2v1h-2zM20 18h1v1h-1zM25 18h4v1h-4zM30 18h11v1h-11zM4 19h1v1h-1zM14 19h1v1h-1zM16 19h1v1h-1zM19 19h2v1h-2zM25 19h2v1h-2zM32 19h1v1h-1zM34 19h1v1h-1zM36 19h3v1h-3zM40 19h1v1h-1zM4 20h1v1h-1zM9 20h2v1h-2zM12 20h1v1h-1zM14 20h2v1h-2zM17 20h1v1h-1zM20 20h1v1h-1zM22 20h2v1h-2zM25 20h1v1h-1zM27 20h1v1h-1zM29 20h1v1h-1zM31 20h2v1h-2zM34 20h1v1h-1zM38 20h1v1h-1zM40 20h1v1h-1zM4 21h1v1h-1zM7 21h1v1h-1zM9 21h1v1h-1zM13 21h2v1h-2zM18 21h3v1h-3zM22 21h1v1h-1zM24 21h1v1h-1zM28 21h4v1h-4zM33 21h1v1h-1zM35 21h1v1h-1zM37 21h3v1h-3zM4 22h1v1h-1zM6 22h1v1h-1zM9 22h3v1h-3zM13 22h5v1h-5zM19 22h2v1h-2zM23 22h2v1h-2zM27 22h1v1h-1zM31 22h2v1h-2zM34 22h2v1h-2zM37 22h1v1h-1zM40 22h1v1h-1zM4 23h1v1h-1zM6 23h3v1h-3zM11 23h1v1h-1zM13 23h1v1h-1zM17 23h1v1h-1zM19 23h1v1h-1zM24 23h2v1h-2zM28 23h2v1h-2zM31 23h1v1h-1zM33 23h1v1h-1zM37 23h1v1h-1zM40 23h1v1h-1zM5 24h1v1h-1zM9 24h2v1h-2zM13 24h3v1h-3zM18 24h1v1h-1zM22 24h2v1h-2zM30 24h3v1h-3zM34 24h1v1h-1zM36 24h2v1h-2zM39 24h1v1h-1zM7 25h1v1h-1zM11 25h4v1h-4zM16 25h1v1h-1zM19 25h3v1h-3zM23 25h7v1h-7zM31 25h2v1h-2zM35 25h3v1h-3zM39 25h1v1h-1zM4 26h1v1h-1zM9 26h7v1h-7zM18 26h1v1h-1zM21 26h5v1h-5zM28 26h2v1h-2zM31 26h1v1h-1zM33 26h2v1h-2zM36 26h3v1h-3zM40 26h1v1h-1zM5 27h1v1h-1zM7 27h1v1h-1zM11 27h2v1h-2zM16 27h1v1h-1zM18 27h2v1h-2zM21 27h1v1h-1zM24 27h3v1h-3zM30 27h3v1h-3zM35 27h1v1h-1zM37 27h2v1h-2zM40 27h1v1h-1zM4 28h3v1h-3zM10 28h2v1h-2zM14 28h1v1h-1zM16 28h5v1h-5zM23 28h2v1h-2zM26 28h3v1h-3zM30 28h1v1h-1zM32 28h3v1h-3zM37 28h1v1h-1zM39 28h2v1h-2zM4 29h1v1h-1zM6 29h3v1h-3zM11 29h1v1h-1zM16 29h6v1h-6zM26 29h1v1h-1zM28 29h2v1h-2zM31 29h3v1h-3zM36 29h3v1h-3zM4 30h2v1h-2zM8 30h3v1h-3zM12 30h1v1h-1zM16 30h1v1h-1zM19 30h1v1h-1zM21 30h2v1h-2zM24 30h3v1h-3zM29 30h1v1h-1zM31 30h2v1h-2zM34 30h3v1h-3zM38 30h3v1h-3zM4 31h1v1h-1zM7 31h1v1h-1zM9 31h1v1h-1zM11 31h2v1h-2zM14 31h4v1h-4zM19 31h1v1h-1zM21 31h1v1h-1zM24 31h1v1h-1zM27 31h1v1h-1zM30 31h1v1h-1zM32 31h2v1h-2zM36 31h3v1h-3zM40 31h1v1h-1zM4 32h1v1h-1zM6 32h1v1h-1zM8 32h4v1h-4zM13 32h1v1h-1zM15 32h3v1h-3zM26 32h1v1h-1zM28 32h2v1h-2zM31 32h8v1h-8zM12 33h1v1h-1zM14 33h1v1h-1zM17 33h1v1h-1zM19 33h1v1h-1zM24 33h1v1h-1zM26 33h1v1h-1zM31 33h2v1h-2zM36 33h3v1h-3zM4 34h7v1h-7zM12 34h1v1h-1zM18 34h1v1h-1zM20 34h1v1h-1zM22 34h3v1h-3zM27 34h1v1h-1zM30 34h1v1h-1zM32 34h1v1h-1zM34 34h1v1h-1zM36 34h3v1h-3zM40 34h1v1h-1zM4 35h1v1h-1zM10 35h1v1h-1zM14 35h2v1h-2zM19 35h1v1h-1zM24 35h1v1h-1zM27 35h6v1h-6zM36 35h2v1h-2zM39 35h2v1h-2zM4 36h1v1h-1zM6 36h3v1h-3zM10 36h1v1h-1zM12 36h3v1h-3zM16 36h2v1h-2zM19 36h1v1h-1zM21 36h5v1h-5zM28 36h1v1h-1zM30 36h7v1h-7zM39 36h2v1h-2zM4 37h1v1h-1zM6 37h3v1h-3zM10 37h1v1h-1zM12 37h1v1h-1zM18 37h1v1h-1zM21 37h2v1h-2zM24 37h2v1h-2zM27 37h2v1h-2zM30 37h2v1h-2zM34 37h2v1h-2zM4 38h1v1h-1zM6 38h3v1h-3zM10 38h1v1h-1zM13 38h1v1h-1zM15 38h1v1h-1zM23 38h2v1h-2zM27 38h1v1h-1zM29 38h2v1h-2zM32 38h1v1h-1zM35 38h2v1h-2zM39 38h2v1h-2zM4 39h1v1h-1zM10 39h1v1h-1zM14 39h1v1h-1zM16 39h1v1h-1zM18 39h1v1h-1zM21 39h1v1h-1zM23 39h1v1h-1zM25 39h4v1h-4zM30 39h2v1h-2zM34 39h7v1h-7zM4 40h7v1h-7zM13 40h1v1h-1zM15 40h1v1h-1zM22 40h1v1h-1zM24 40h1v1h-1zM27 40h2v1h-2zM32 40h1v1h-1zM34 40h1v1h-1zM37 40h1v1h-1zM40 40h1v1h-1z"/>
</svg>